<svg xmlns="http://www.w3.org/2000/svg" width="21" height="86" fill="none" viewBox="0 0 21 86">
  <g clip-path="url(#a)">
    <path fill="#312726" d="M20.202.014v.958H0V.014h20.202Zm0 1.437v.48H0v-.48h20.202Zm.001 1.438v.479H1.683v-.48h18.52Zm0 2.396v.48H1.683v-.48h18.52Zm0 2.398v.958H1.683v-.958h18.52Zm0 1.917v.479H1.683v-.48h18.52Zm0 .958v.479H1.683v-.48h18.52Zm0 2.876v.479H1.683v-.48h18.52Zm0 2.396v.48H1.683v-.48h18.52Zm0 3.835v.48H1.683v-.48h18.52Zm0 4.314v.479H1.683v-.48h18.52Zm0 2.396v.48H1.683v-.48h18.52Zm0 5.273v.479H1.683v-.48h18.52Zm0-6.231v.48H1.683v-.48h18.52Zm0 5.273v.479H1.683v-.48h18.52Zm0 5.272v.48H1.683v-.48h18.52Zm0 .958v.48H1.683v-.48h18.52Zm0 2.876v.48H1.683v-.48h18.52Zm0 2.396v.48H1.683v-.48h18.52Zm0 3.835v.48H1.683v-.48h18.52Zm0 1.438v.48H1.683v-.48h18.52Zm0 3.835v.48H1.683v-.48h18.52Zm0 1.437v.48H1.683v-.48h18.52Zm0 5.273v.479H1.683v-.48h18.52Zm0 2.396v.48H1.683v-.48h18.52Zm0 2.876v.48H1.683v-.48h18.52Zm0 4.314v.479H1.683v-.48h18.52Zm0 5.272v.48H1.683v-.48h18.52Zm0 .959v.48H1.683v-.48h18.52Zm-.001 9.586v.48H0v-.48h20.202Zm0 .959v.959H0v-.959h20.202Zm.001-2.876v1.438H1.683v-1.438h18.52Zm0-3.835v.96H1.683v-.96h18.52Zm0 1.439v.958H1.683V79.1h18.52Zm0-4.314v1.438H1.683v-1.438h18.52Zm0-3.835v1.438H1.683V70.95h18.52Zm0-2.396v1.917H1.683v-1.917h18.52Zm0-3.355v1.916H1.683V65.2h18.52Zm0-3.835v.959H1.683v-.959h18.52Zm0-7.19v.958H1.683v-.958h18.52Zm0 1.918v1.438H1.683v-1.438h18.52Zm0-7.669v1.917H1.683v-1.917h18.52Zm0-4.794v1.918H1.683v-1.917h18.52Zm0-22.528v.96H1.683v-.96h18.52Zm0 16.777v.959H1.683v-.96h18.52Zm0-3.835v.959H1.683v-.96h18.52Zm0-5.751v1.917H1.683v-1.917h18.52Zm0-16.776v.958H1.683v-.958h18.52Zm0 5.273v1.916H1.683V16.79h18.52Z"/>
  </g>
  <defs>
    <clipPath id="a">
      <path fill="#fff" d="M0 0h20.202v85.344H0z"/>
    </clipPath>
  </defs>
</svg>
