<svg xmlns="http://www.w3.org/2000/svg" width="24" height="24" fill="none" viewBox="0 0 24 24">
  <g clip-path="url(#a)">
    <path fill="#fff" d="M10.812 24H8l3.038-9H6l-1.085 1.653A2.993 2.993 0 0 1 2.412 18H.043l2.2-6L.027 6H2.4a2.99 2.99 0 0 1 2.5 1.343L6 9h5.041l-3.04-9h2.811a3 3 0 0 1 2.634 1.563L17.588 9h3.305a3.084 3.084 0 0 1 3.067 2.5A2.998 2.998 0 0 1 21 15h-3.412l-4.146 7.444A3 3 0 0 1 10.812 24Z"/>
  </g>
  <defs>
    <clipPath id="a">
      <path fill="#fff" d="M0 0h24v24H0z"/>
    </clipPath>
  </defs>
</svg>
