<svg xmlns="http://www.w3.org/2000/svg" width="14" height="14" fill="none" viewBox="0 0 14 14">
  <path fill="url(#a)" d="M2.549 6.98 0 6.034.784 3.9l2.432.862c1.411.493 2.196.945 3.02 1.52C6 5.255 5.881 4.27 5.881 2.832V0h2.196v2.833c0 1.437-.156 2.504-.353 3.449.824-.534 1.608-1.027 2.98-1.52l2.472-.903L14 6.035l-2.588.944c-1.294.493-2.314.657-3.216.78.824.74 1.412 1.396 2.157 2.628l1.53 2.3L10.077 14 8.55 11.742a16.015 16.015 0 0 1-1.608-3.038c-.314.985-.745 1.93-1.53 3.038L3.844 14 2 12.686l1.53-2.299A13.783 13.783 0 0 1 5.764 7.76c-1.177-.165-2.079-.329-3.216-.78Z"/>
  <defs>
    <linearGradient id="a" x1="14" x2="0" y1="7" y2="7" gradientUnits="userSpaceOnUse">
      <stop stop-color="#CA8B37"/>
      <stop offset=".505" stop-color="#F9E67E"/>
      <stop offset="1" stop-color="#CA8B37"/>
    </linearGradient>
  </defs>
</svg>
