<svg xmlns="http://www.w3.org/2000/svg" width="18" height="18" fill="none" viewBox="0 0 18 18">
  <path stroke="#CB933C" stroke-linecap="round" stroke-linejoin="round" d="M6.872 8.152a1.363 1.363 0 0 0-.248 0A3.315 3.315 0 0 1 3.422 4.83a3.327 3.327 0 0 1 3.33-3.33 3.327 3.327 0 0 1 .12 6.652ZM12.308 3a2.623 2.623 0 0 1 2.625 2.625 2.629 2.629 0 0 1-2.527 2.625.847.847 0 0 0-.195 0M3.12 10.92c-1.816 1.215-1.816 3.195 0 4.402 2.062 1.38 5.444 1.38 7.507 0 1.815-1.214 1.815-3.194 0-4.402-2.055-1.373-5.438-1.373-7.508 0ZM13.754 15a3.64 3.64 0 0 0 1.47-.652c1.17-.878 1.17-2.325 0-3.203-.413-.315-.915-.525-1.448-.645"/>
</svg>
