<svg xmlns="http://www.w3.org/2000/svg" width="366" height="373" fill="none" viewBox="0 0 366 373">
  <g filter="url(#a)">
    <path fill="url(#b)" d="M170.732 312.05c-.926-18.345-3.734-36.317-12.955-52.649-1.121-1.965-6.121-9.79-6.121-9.79s-6.575-5.812-9.935-8.231c-3.312-2.37-6.965-4.269-10.439-6.364 5.455-9.773 7.111-27.712 2.354-30.131a633.5 633.5 0 0 1-4.416 1.786c-.243 8.831 2.906 17.777-5.617 25.115-5.26-4.66-10.276-9.092-15.683-13.865 4.676-3.977 7.371-8.117 7.988-13.377.617-5.195.795-10.341-1.364-15.877-2.094.811-3.799 1.477-5.309 2.061-.146 7.517 2.484 15.131-5.308 20.992-8.913-14.287-12.76-29.32-12.095-46.513.476.26.947.52 1.413.78.021-.044.043-.081.064-.114 1.851-3.149 4.108-6.153 6.624-8.945-1.12-2.565-2.598-8.426-2.598-8.426s-1.493-9.286-1.526-9.676c-1.802-17.582-7.354-13.15-7.273-9.952.163 6.348.893 12.696 1.559 19.011.227 2.241.958 4.432 1.445 6.64l-1.494.844c-4.984-4.854-10.292-9.416-14.87-14.627-14.66-16.657-20.927-36.301-19.953-58.38.163-3.523 1.023-5.844 4.887-7.468 14.903-6.25 21.592-18.653 19.562-34.985-.048-.325-.535-.601-.99-1.104-.698.065-1.59 0-2.386.243-1.007.292-1.932.828-2.712 1.185-.406 16.349-5.828 25.57-16.007 27.031 1.007-3.913 1.965-7.663 3.02-11.77-1.965-.844-3.653-1.575-5.601-2.403-5.487 12.355-6.267 25.148-6.77 38.168-5.925-1.445-8.685-5.585-12.078-9.449-1.786.99-3.393 1.883-5.228 2.89 2.922 6.64 7.874 10.358 13.864 12.955 1.981.86 4.319 1.185 4.806 3.897.714 4.042 1.493 8.084 2.289 12.289-12.533 5.293-21.56-.487-30.148-8.442a781.94 781.94 0 0 1-5.13 3.961c10.699 11.576 22.859 16.576 38.103 11.316 6.429 14.936 15.86 26.949 27.923 36.885 2.273 1.867 1.932 4.059 2.16 6.461.795 8.962 1.866 17.875 2.84 26.804.163 1.445.309 2.889.471 4.464-21.089-3.993-33.524-24.124-32.242-52.016-1.645-.562-3.436-1.179-5.373-1.85-2.825 5.731-.893 11.559-1.754 17.972-10.666-5.407-14.627-15.277-19.27-24.742-2.273 1.006-3.961 1.77-5.747 2.565 2.403 7.192 5.374 13.637 10.244 18.767 3.572 3.75 7.76 7.322 12.354 9.53 3.75 1.802 5.715 3.912 7.192 7.614 6.218 15.504 16.965 25.992 33.833 29.206 3.068.585 4.984 1.964 6.332 4.903 3.62 7.858 8.766 14.692 14.968 20.748.86.844 1.542 1.883 2.776 3.393-3.62.227-6.461.682-9.254.503-2.045-.13-4.432-.584-5.958-1.786-9.237-7.273-19.222-13.166-30.212-17.306-2.208-.844-3.62-2.045-4.237-4.497-4.53-17.76-16.154-29.839-31.463-38.93-1.834-1.088-3.669-2.241-5.244-3.199-1.104-18.134-4.627-26.348-14.708-33.914a4048.444 4048.444 0 0 1-3.36 5.212c7.305 7.094 11.022 15.081 10.876 25.374-5.065-1.51-9.4-2.808-14.416-4.318-.406 2.581-.714 4.546-1.023 6.477 9.27 3.312 18.15 5.747 25.927 11.673-6.997 9.254-17.5 9.952-27.339 12.614a681.9 681.9 0 0 0 .617 6.267c12.923-1.672 24.514-4.919 33.07-15.049 9.643 7.467 16.656 16.007 20.13 28.329-18.02-3.848-35.099-5.731-52.843-2.289.487 2.338.877 4.14 1.331 6.25 13.75-1.672 26.982-2.191 40.554 1.169-2.922 6.121-6.218 10.845-11.007 14.579-8.88-5.617-18.02-4.903-27.94-2.793.828 2.452 1.413 4.221 1.965 5.845 6.932-.016 13.718-2.452 20.78 2.549-6.202 3.912-11.689 7.37-17.436 10.991.796 1.688 1.526 3.246 2.273 4.789.081.146.373.178.974.438 16.592-7.224 29.368-19.059 38.054-35.05 13.67 3.766 25.813 8.977 37.453 18.199-17.858 4.01-31.966 12.435-43.492 24.871-10.374-3.555-19.758-2.76-28.98 3.442 1.284 1.867 2.323 3.425 3.378 4.951 6.672-2.159 12.809-5.958 20.39-2.273-4.48 7.257-9.4 14.011-11.705 22.485 2.046.763 3.815 1.413 5.845 2.16 6.412-14.725 14.968-27.388 28.134-36.658 4.302 7.322 6.072 14.968 5.26 21.819-15.65 6.169-25.082 18.881-23.881 32.827 1.737.081 3.572.178 5.244.259 4.789-17.257 10.325-24.368 18.832-24.319-1.072 12.695-6.315 23.946-12.598 35.148 2.11 1.185 3.766 2.11 5.893 3.295 3.117-5.958 6.04-11.526 9.124-17.419 5.016 6.77 2.776 14.351 3.669 21.624 1.98.179 3.652.325 5.795.52 1.3-9.611 1.526-18.8-4.09-26.885-2.274-3.23-2.68-6.055-1.965-9.724 2.516-12.793 1.737-25.359-3.28-37.535-.487-1.169-.811-2.386-1.363-4.026 10.017-5.422 20.163-8.702 31.706-8.913.065 13.183-6.9 21.43-17.014 28.232 1.088 1.981 2.046 3.75 3.117 5.699 13.605-7.858 20.374-19.222 21.17-34.126 10.634-.438 19.774 1.559 27.68 6.851-5.715 6.64-11.381 12.745-16.43 19.32-1.996 2.597-3.977 4.286-7.062 5.292-11.088 3.653-18.767 11.17-23.329 21.819-3.23 7.566-4.756 15.505-4.448 23.768.016.373.422.714.974 1.607 1.526-.13 3.312-.292 5.163-.454.47-4.108.78-7.614 1.315-11.089.536-3.49.974-7.062 3.425-10.309 3.264 5.618 4.465 9.92 4.725 15.521.535 11.088-3.588 20.618-9.757 29.482-.455.649-.666 1.493-1.104 2.532 1.785 1.202 3.311 2.241 4.967 3.345 6.137-7.468 10.066-15.521 11.77-24.498 2.322-12.322-.113-23.963-6.51-34.58 3.929-4.627 7.679-8.231 13.784-9.822-2.614 12.257-.828 22.826 5.925 32.989 2.046-1.559 3.539-2.695 4.952-3.783-7.793-14.838-7.079-29.19 2.613-38.914 4.984 7.305 4.075 14.952 1.705 22.89 1.039.617 1.916 1.267 2.874 1.705.763.341 1.639.438 2.418.633 5.001-9.318 4.481-16.462-2.483-32.777 3.539-3.085 7.256-6.316 11.007-9.579 5.714 4.919 9.107 10.553 11.948 16.527 5.682 11.867 8.215 24.563 9.189 37.567 1.51 20.277.519 40.424-4.221 60.295-.13.568.114 1.234.195 2.03 1.607.714 3.165 1.412 5.146 2.289.617-1.9 1.283-3.491 1.672-5.163 3.978-17.241 5.341-34.758 4.465-52.405Z"/>
    <path fill="url(#c)" d="M331.277 180.376c8.734 10.601 20.293 13.426 32.988 15.147.26-2.241.471-4.075.698-6.121-9.968-2.906-20.748-3.377-27.988-13.702 9.383-3.994 17.988-7.646 26.803-11.413-.666-1.915-1.282-3.685-1.948-5.633-4.724 1.38-8.994 2.646-14.351 4.221.779-4.335.746-7.793 2.029-10.65 2.386-5.309 5.536-10.293 8.702-16.007a545.256 545.256 0 0 0-3.182-4.384c-2.257 2.37-4.351 4.254-6.072 6.445-5.081 6.429-7.63 13.946-7.744 22.015-.081 4.578-1.753 6.964-5.666 9.188-15.487 8.799-26.917 21.138-31.527 38.817-.731 2.793-2.452 3.783-4.838 4.708a107.669 107.669 0 0 0-27.453 15.521c-5.373 4.172-9.627 4.627-16.851 1.721 7.565-7.014 13.734-14.969 17.907-24.287 1.233-2.712 3.474-3.15 5.828-3.605 14.66-2.873 25.261-11.25 31.479-24.579 2.954-6.348 6.282-10.845 12.955-14.205 10-5.033 15.082-14.968 18.556-25.456.097-.341-.179-.812-.374-1.623-1.591-.439-3.377-.926-5.049-1.397-8.328 16.982-11.916 21.3-19.481 23.443-.487-5.568.974-11.299-1.218-17.225-2.126.828-3.831 1.494-5.357 2.095.097 29.368-15.196 53.054-31.722 51.187.844-9.627 2.013-19.205 2.402-28.816.163-4.254 1.023-7.257 4.465-10.114 10.276-8.54 18.28-18.962 24.043-31.073.617-1.315 1.478-2.533 2.322-3.945 15.374 5.308 27.128-.065 37.664-11.413-2.127-1.494-3.685-2.598-5.163-3.637-14.059 11.153-21.77 13.02-30.228 7.306.974-4.416 1.964-8.897 2.987-13.54 7.581-2.776 14.367-6.526 18.134-14.692a895.708 895.708 0 0 0-5.341-2.841c-3.523 3.766-6.105 8.377-11.949 9.107-.714-13.052-1.51-25.764-7.046-38.086a2657.25 2657.25 0 0 1-5.536 2.89 3961.55 3961.55 0 0 0 3.085 11.688c-13.166-4.967-16.527-15.13-15.618-27.663l-6.153-.99c-1.217 7.451-.535 14.091 2.306 20.504 4.107 9.335 11.981 14.254 20.828 17.338 4.481 30.473-13.815 70.588-34.514 77.439.925-9.757 1.867-19.725 2.857-30.05a32.07 32.07 0 0 0 1.542-.925c-.649-1.332-1.152-2.76-1.623-4.189-.584-1.753.666-3.523 2.305-4.058 1.754-.569 3.507.681 4.059 2.305.216.66.444 1.315.682 1.964 2.808-2.5 5.244-5.471 7.062-9.026 3.084-6.056 5.422-12.306 5.422-19.563h-5.909c-4.984 17.988-7.809 22.647-15.098 25.229-2.192-5.877-4.367-11.77-6.689-18.004-.39 8.782-.422 18.41.373 24.384.796 5.974-.275 19.465-.275 19.465l-1.429 6.981s-2.046 8.328-4.108 11.592c2.858 1.737 5.666 3.539 7.874 6.104.563-.238 1.142-.487 1.737-.747 1.559 15.293-4.562 37.161-12.728 45.652-7.143-5.601-4.529-13.426-4.399-20.91-2.078-.422-3.864-.78-6.023-1.218-2.451 10.926-2.143 20.586 7.046 29.028-5.277 4.643-10.309 9.075-15.732 13.831-8.117-7.662-5.876-16.591-5.162-25.52-1.916-.536-3.685-1.023-5.958-1.673-2.452 10.878-2.744 20.862 3.458 29.823-6.965 4.952-13.686 9.725-20.569 14.628l-4.465 7.744c-9.968 17.176-13.523 35.83-14.14 55.165-.617 19.303.13 38.509 5.877 57.633 1.786-.763 3.019-1.218 4.172-1.818.536-.276.958-.828 1.575-1.397-5.147-22.225-6.64-44.693-3.88-67.389 1.51-12.29 4.334-24.239 10.39-35.181 2.63-4.773 5.422-9.481 10.504-12.89 3.679 3.268 7.24 6.44 10.682 9.513-7.111 16.138-7.63 22.842-2.484 32.875 1.688-.714 3.393-1.461 5.244-2.256-2.046-8.231-3.377-16.072 2.062-23.459 9.156 11.088 9.724 21.819 2.159 39.596 1.721.996 3.49 2.024 5.308 3.085 6.803-10.196 7.809-20.911 5.861-32.275 6.835 2.094 9.302 3.978 13.312 9.936-5.227 9.286-8.279 19.27-6.834 30.164 1.412 10.617 5.292 20.179 12.63 28.41 1.494-1.023 2.598-1.704 3.604-2.516.471-.373.731-1.007 1.055-1.494-12.224-19.936-14.302-36.609-5.487-46.431 3.166 6.608 3.296 13.637 3.945 20.992h5.909c0-3.523.341-6.803-.064-10.001-1.77-13.929-6.884-26.706-19.92-33.037-8.864-4.319-15.423-9.968-21.008-17.631-2.808-3.848-6.445-7.078-9.822-10.731 8.074-5.217 17.193-7.463 27.356-6.738.373 1.721.828 3.182.99 4.676 1.461 12.777 8.28 21.949 19.075 28.443.488.292 1.153.26 2.014.438l2.272-5.178c-13.588-10.667-18.247-19.125-15.617-28.444 10.926.958 21.316 3.507 30.829 9.514-6.559 13.913-7.906 27.745-4.87 41.902.73 3.36.259 5.665-1.689 8.458-5.747 8.231-6.071 17.452-4.497 27.241 1.608 0 2.695.098 3.734-.032.828-.097 1.608-.487 2.322-.714.065-16.332.065-16.332 3.961-20.57 3.263 5.39 4.708 11.835 9.611 16.657a1475.56 1475.56 0 0 1 4.724-3.604c-6.25-11.332-11.575-22.452-12.338-35.732 6.737 1.477 10.601 5.373 13.166 10.309 2.484 4.789 4.156 10.016 6.364 15.471l5.276-1.396c-2.5-17.241-8.409-24.92-24.936-32.599-.325-7.419 1.348-14.433 5.357-21.56 13.459 9.595 22.063 22.323 28.378 36.999 2.257-.942 3.994-1.672 6.543-2.727-4.14-7.663-8.036-14.904-12.046-22.339 7.305-3.28 13.458.357 20.033 2.565a728.326 728.326 0 0 0 3.296-5.049c-9.335-6.364-19.043-6.754-28.849-3.637-15.91-14.351-15.91-14.351-43.07-25.131 11.202-8.653 23.41-14.108 37.08-17.679 8.636 16.462 21.64 27.891 38.881 35.489.812-2.403 1.413-4.173 2.046-6.072-5.715-3.637-11.998-5.91-16.722-11.381 6.851-3.993 13.67-1.785 20.65-1.785.358-1.981.699-3.783 1.121-5.991-9.92-2.013-19.108-2.484-27.745 3.003-4.416-4.367-8.377-8.572-10.536-14.773 13.653-3.166 26.949-2.646 40.57-1.072.406-2.305.714-4.139 1.087-6.282-17.825-3.28-34.936-1.494-52.908 2.402 3.75-12.5 10.748-21.218 20.375-28.475Z"/>
    <path fill="url(#d)" d="M274.332 63.879c-.942 4.935-1.526 9.74-2.808 14.351-.617 2.208-1.348 9.66-1.77 18.15 7.224-9.286 10.617-20.244 10.601-32.501h-6.023Z"/>
    <g filter="url(#e)">
      <path fill="url(#f)" d="M305.771 125.315c-2.013-4.951-5.146-9.4-7.321-14.286-1.445-3.231 1.152-6.17 3.717-6.364-4.529-18.28-12.5-35.262-23.329-50.993-1.72-2.517-.324-4.952 1.819-5.942C257.198 18.572 221.693 0 182.032 0c-31.771 0-61.026 12.014-83.543 31.885.73.941 1.12 2.159.877 3.604-.844 5.13-5.05 8.312-8.523 11.673-4.237 4.123-8.166 8.912-11.851 13.54-4.221 5.324-6.689 10.73-8.313 17.338-1.526 6.266-3.246 12.468-5.373 18.572-1.169 3.36-3.069 6.38-4.692 9.514 2.468.048 4.838 2.029 3.75 5.049-1.818 5.065-4.756 9.659-6.023 14.919-.205.78-.53 1.402-.974 1.867l.065 1.023c.715 8.88 2.679 17.761 4.952 26.479 1.493-2.354 3.003-4.692 4.35-7.143.406-2.127 1.25-4.303 2.63-6.592.184-.303.374-.606.569-.909 2.581-7.663 4.448-15.634 8.994-22.404.41-.606.876-1.071 1.396-1.396.34-1.818 1.704-3.393 4.075-3.393 4.48 0 5.357 5.569 2.646 7.777.503 6.802-2.5 12.906-6.104 18.475-.926 1.428-2.03 2.873-3.036 4.367a.678.678 0 0 1-.033.081c2.403.844 4.14 3.604 2.403 6.266-1.997 3.101-2.143 6.608-2.143 10.196 32.567-5.114 67.617-7.923 104.096-7.923 36.544 0 71.578 2.793 104.079 7.874-.292-1.591.13-3.328 1.64-5.049.238-.271.492-.519.763-.747-1.9-5.731-3.458-11.234-6.25-16.689-2.809-5.503-5.536-11.251-5.114-17.615.011-.151.032-.308.065-.47-1.624-2.533-.471-6.835 3.458-6.835 2.906 0 4.286 2.338 4.172 4.578 3.994 4.935 5.374 10.618 7.354 16.608 2.111 6.315 6.023 11.819 10.569 16.559.368-2.348.584-4.724.649-7.127.033-2.289 1.526-3.636 3.263-4.042-.081-4.887-.535-9.741-1.104-14.595Z"/>
    </g>
    <path fill="url(#g)" d="M305.757 125.326c-2.013-4.951-5.146-9.4-7.321-14.286-1.445-3.231 1.152-6.169 3.717-6.364-3.847-15.52-10.179-30.1-18.621-43.769-22.793-13.848-49.352-21.82-77.698-21.82-67.389 0-125.363 45.247-145.51 108.01a278.17 278.17 0 0 0 2.046 8.377c1.493-2.354 3.003-4.692 4.35-7.143.406-2.127 1.25-4.302 2.63-6.592.185-.303.374-.606.569-.909 2.581-7.662 4.448-15.634 8.994-22.404.411-.606.876-1.071 1.396-1.396.34-1.818 1.704-3.393 4.075-3.393 4.48 0 5.357 5.569 2.646 7.777.503 6.802-2.5 12.906-6.104 18.475-.926 1.428-2.03 2.873-3.036 4.367a.695.695 0 0 1-.032.081c2.402.844 4.14 3.604 2.402 6.267-1.997 3.1-2.143 6.607-2.143 10.195 32.567-5.114 67.617-7.923 104.096-7.923 36.544 0 71.578 2.793 104.079 7.874-.292-1.591.13-3.328 1.64-5.049.238-.27.492-.519.763-.747-1.899-5.73-3.458-11.234-6.25-16.689-2.809-5.503-5.536-11.25-5.114-17.614.011-.152.032-.309.065-.471-1.624-2.533-.471-6.835 3.458-6.835 2.906 0 4.286 2.338 4.172 4.578 3.994 4.936 5.374 10.618 7.354 16.608 2.111 6.316 6.023 11.819 10.569 16.56.368-2.349.584-4.725.649-7.127.033-2.29 1.526-3.637 3.263-4.043-.081-4.887-.535-9.741-1.104-14.595Z"/>
    <g filter="url(#h)">
      <path fill="#12202F" d="M218.025 5.262c67.081 18.962 105.426 92.31 83.997 158.498-4.01-17.955-10.829-33.557-22.745-46.853 16.673 34.483 14.157 67.098-8.474 98.512-1.591-9.4-2.305-18.215-4.724-26.527-2.403-8.264-6.51-16.04-10.845-23.752 4.318 19.936 2.192 38.525-8.458 55.864-6.884 11.202-16.365 19.449-29.092 25.407 1.526-6.007 3.035-11.251 4.188-16.559 5.13-23.768 5.211-47.568-.26-71.287-.73-3.117-.357-4.838 2.549-6.558 56.301-33.639 55.003-114.714-4.838-145.658-.422-.227-.746-.616-1.298-1.087Z"/>
    </g>
    <g filter="url(#i)">
      <path fill="#12202F" d="M145.519 5.508c-20.293 10.828-34.677 26.625-42.323 48.46-12.566 35.879 1.591 76.822 33.865 96.807 3.653 2.273 4.497 4.221 3.718 8.54-5.017 27.582-3.556 54.856 5.016 81.66.52 1.64.893 3.344 1.591 5.942-16.202-7.403-27.485-18.394-34.547-33.703-7.078-15.326-7.728-31.203-3.896-47.552-10.504 14.693-14.757 31.268-15.57 49.11-22.857-30.764-25.504-63.234-8.214-97.667-7.354 4.334-15.358 20.033-23.215 45.083-19.45-51.058 6.169-133.74 83.575-156.68Z"/>
    </g>
    <path fill="#12202F" fill-rule="evenodd" d="M218.122 94.17c-5.13 1.072-9.951 1.056-13.62 3.101-5.455 3.036-5.617 9.027-2.728 15.18 5.78 12.322 11.17 24.855 16.478 37.404.747 1.77.65 4.237.114 6.153-9.595 34.271-19.417 68.494-28.979 102.782-2.646 9.529-4.61 19.238-7.127 29.871-.681-1.834-1.136-2.825-1.412-3.847-10.065-37.145-20.098-74.322-30.245-111.451-1.12-4.14-2.321-8.474-4.529-12.095-3.929-6.396-3.02-12.436.438-18.231 5.13-8.605 10.764-16.933 16.251-25.343.941-1.444 2.191-2.662 3.945-4.74h-15.439c1.802-8.101 7.565-12.533 15.341-15.942a17739.57 17739.57 0 0 0-19.432-6.868c.021-.487.048-.974.081-1.46a8742.27 8742.27 0 0 1 17.971-3.946c10.537-2.321 21.057-4.708 31.609-6.9 11.949-2.467 22.03 6.04 21.283 16.333Zm-16.948-7.711c-.119-.639-.238-1.272-.358-1.9-3.733.666-7.484 1.348-12.273 2.192 5.585 4.903 8.02 4.61 12.631-.292Z" clip-rule="evenodd"/>
  </g>
  <defs>
    <linearGradient id="b" x1=".995" x2="170.982" y1="38.811" y2="38.811" gradientUnits="userSpaceOnUse">
      <stop offset=".051" stop-color="#78572E"/>
      <stop offset=".415" stop-color="#E5D795"/>
      <stop offset=".494" stop-color="#FCF6AD"/>
      <stop offset=".562" stop-color="#FCF6AD"/>
      <stop offset=".949" stop-color="#6A4C26"/>
    </linearGradient>
    <linearGradient id="c" x1="195.017" x2="364.971" y1="38.781" y2="38.781" gradientUnits="userSpaceOnUse">
      <stop offset=".051" stop-color="#78572E"/>
      <stop offset=".415" stop-color="#E5D795"/>
      <stop offset=".494" stop-color="#FCF6AD"/>
      <stop offset=".562" stop-color="#FCF6AD"/>
      <stop offset=".949" stop-color="#6A4C26"/>
    </linearGradient>
    <linearGradient id="d" x1="269.756" x2="280.36" y1="63.874" y2="63.874" gradientUnits="userSpaceOnUse">
      <stop offset=".051" stop-color="#78572E"/>
      <stop offset=".415" stop-color="#E5D795"/>
      <stop offset=".494" stop-color="#FCF6AD"/>
      <stop offset=".562" stop-color="#FCF6AD"/>
      <stop offset=".949" stop-color="#6A4C26"/>
    </linearGradient>
    <linearGradient id="f" x1="53.974" x2="309.768" y1=".002" y2=".002" gradientUnits="userSpaceOnUse">
      <stop stop-color="#AA6E2C"/>
      <stop offset=".222" stop-color="#D28C32"/>
      <stop offset=".398" stop-color="#F6D867"/>
      <stop offset=".514" stop-color="#F7EA84"/>
      <stop offset=".606" stop-color="#F6D572"/>
      <stop offset=".746" stop-color="#D79034"/>
      <stop offset="1" stop-color="#A7702C"/>
    </linearGradient>
    <linearGradient id="g" x1="57.012" x2="309.753" y1="39.096" y2="39.096" gradientUnits="userSpaceOnUse">
      <stop stop-color="#AA6E2C"/>
      <stop offset=".222" stop-color="#D28C32"/>
      <stop offset=".398" stop-color="#F6D867"/>
      <stop offset=".514" stop-color="#F7EA84"/>
      <stop offset=".606" stop-color="#F6D572"/>
      <stop offset=".746" stop-color="#D79034"/>
      <stop offset="1" stop-color="#A7702C"/>
    </linearGradient>
    <filter id="a" width="365.965" height="377.703" x="0" y="0" color-interpolation-filters="sRGB" filterUnits="userSpaceOnUse">
      <feFlood flood-opacity="0" result="BackgroundImageFix"/>
      <feColorMatrix in="SourceAlpha" result="hardAlpha" values="0 0 0 0 0 0 0 0 0 0 0 0 0 0 0 0 0 0 127 0"/>
      <feOffset dy="1.5"/>
      <feGaussianBlur stdDeviation=".5"/>
      <feComposite in2="hardAlpha" operator="out"/>
      <feColorMatrix values="0 0 0 0 0 0 0 0 0 0 0 0 0 0 0 0 0 0 0.8 0"/>
      <feBlend in2="BackgroundImageFix" result="effect1_dropShadow_517_4066"/>
      <feBlend in="SourceGraphic" in2="effect1_dropShadow_517_4066" result="shape"/>
      <feColorMatrix in="SourceAlpha" result="hardAlpha" values="0 0 0 0 0 0 0 0 0 0 0 0 0 0 0 0 0 0 127 0"/>
      <feOffset dy="20"/>
      <feGaussianBlur stdDeviation="4"/>
      <feComposite in2="hardAlpha" k2="-1" k3="1" operator="arithmetic"/>
      <feColorMatrix values="0 0 0 0 1 0 0 0 0 1 0 0 0 0 1 0 0 0 0.19 0"/>
      <feBlend in2="shape" result="effect2_innerShadow_517_4066"/>
    </filter>
    <filter id="e" width="249.508" height="164.787" x="57.367" y="0" color-interpolation-filters="sRGB" filterUnits="userSpaceOnUse">
      <feFlood flood-opacity="0" result="BackgroundImageFix"/>
      <feBlend in="SourceGraphic" in2="BackgroundImageFix" result="shape"/>
      <feColorMatrix in="SourceAlpha" result="hardAlpha" values="0 0 0 0 0 0 0 0 0 0 0 0 0 0 0 0 0 0 127 0"/>
      <feOffset dy="4"/>
      <feGaussianBlur stdDeviation="2"/>
      <feComposite in2="hardAlpha" k2="-1" k3="1" operator="arithmetic"/>
      <feColorMatrix values="0 0 0 0 1 0 0 0 0 1 0 0 0 0 1 0 0 0 0.65 0"/>
      <feBlend in2="shape" result="effect1_innerShadow_517_4066"/>
    </filter>
    <filter id="h" width="90.293" height="245.148" x="217.684" y="5.262" color-interpolation-filters="sRGB" filterUnits="userSpaceOnUse">
      <feFlood flood-opacity="0" result="BackgroundImageFix"/>
      <feBlend in="SourceGraphic" in2="BackgroundImageFix" result="shape"/>
      <feColorMatrix in="SourceAlpha" result="hardAlpha" values="0 0 0 0 0 0 0 0 0 0 0 0 0 0 0 0 0 0 127 0"/>
      <feOffset dy="4"/>
      <feGaussianBlur stdDeviation="2"/>
      <feComposite in2="hardAlpha" k2="-1" k3="1" operator="arithmetic"/>
      <feColorMatrix values="0 0 0 0 1 0 0 0 0 1 0 0 0 0 1 0 0 0 0.25 0"/>
      <feBlend in2="shape" result="effect1_innerShadow_517_4066"/>
    </filter>
    <filter id="i" width="91.672" height="245.408" x="55.715" y="5.508" color-interpolation-filters="sRGB" filterUnits="userSpaceOnUse">
      <feFlood flood-opacity="0" result="BackgroundImageFix"/>
      <feBlend in="SourceGraphic" in2="BackgroundImageFix" result="shape"/>
      <feColorMatrix in="SourceAlpha" result="hardAlpha" values="0 0 0 0 0 0 0 0 0 0 0 0 0 0 0 0 0 0 127 0"/>
      <feOffset dy="4"/>
      <feGaussianBlur stdDeviation="2"/>
      <feComposite in2="hardAlpha" k2="-1" k3="1" operator="arithmetic"/>
      <feColorMatrix values="0 0 0 0 1 0 0 0 0 1 0 0 0 0 1 0 0 0 0.25 0"/>
      <feBlend in2="shape" result="effect1_innerShadow_517_4066"/>
    </filter>
  </defs>
</svg>
